PathFileType	4	(X/Y/Z)	C:\Users\Biomechanik\SynologyDrive\AlexP\Athlete_03\Athlete_3_22_07_06\sq_80_EMG\marker_experimental.trc																																																																																																																																																																												
DataRate	CameraRate	NumFrames	NumMarkers	Units	OrigDataRate	OrigDataStartFrame	OrigNumFrames																																																																																																																																																																								
200	200	5	58	mm	200	0	1403																																																																																																																																																																								
Frame#	Time	BL			BR			GLAB			RFHD			LFHD			C7			T6			SPINMOL			SPINM2			SPINM3			T12			BELTOL			BELT2			BELT3			SACROL			SACR2			SACR3			LTHOL			LTH2			LTH3			LSHAOL			LSHA2			LSHA3			LHEE			LTOE			LM5			RTHOL			RTH2			RTH3			RSHAOL			RSHA2			RSHA3			RHEE			RTOE			RM5			STRN			XIPH			LACR			LUAOL			LUA2			LUA3			LLAOL			LLA2			LLA3			LWRU			RACR			RUAOL			RUA3			RLAOL			RLA2			RLA3			RWRU			USERMO0			USERMO1			USERMO2			USERMO3			USERMO4			USERMO5		
		X1	Y1	Z1	X2	Y2	Z2	X3	Y3	Z3	X4	Y4	Z4	X5	Y5	Z5	X6	Y6	Z6	X7	Y7	Z7	X8	Y8	Z8	X9	Y9	Z9	X10	Y10	Z10	X11	Y11	Z11	X12	Y12	Z12	X13	Y13	Z13	X14	Y14	Z14	X15	Y15	Z15	X16	Y16	Z16	X17	Y17	Z17	X18	Y18	Z18	X19	Y19	Z19	X20	Y20	Z20	X21	Y21	Z21	X22	Y22	Z22	X23	Y23	Z23	X24	Y24	Z24	X25	Y25	Z25	X26	Y26	Z26	X27	Y27	Z27	X28	Y28	Z28	X29	Y29	Z29	X30	Y30	Z30	X31	Y31	Z31	X32	Y32	Z32	X33	Y33	Z33	X34	Y34	Z34	X35	Y35	Z35	X36	Y36	Z36	X37	Y37	Z37	X38	Y38	Z38	X39	Y39	Z39	X40	Y40	Z40	X41	Y41	Z41	X42	Y42	Z42	X43	Y43	Z43	X44	Y44	Z44	X45	Y45	Z45	X46	Y46	Z46	X47	Y47	Z47	X48	Y48	Z48	X49	Y49	Z49	X50	Y50	Z50	X51	Y51	Z51	X52	Y52	Z52	X53	Y53	Z53	X54	Y54	Z54	X55	Y55	Z55	X56	Y56	Z56	X57	Y57	Z57	X58	Y58	Z58
																																																																																																																																																																															
1	0	197.8656158	1251.076294	-2286.958496	226.8983154	1302.410156	-65.3806076	582.802124	1390.351074	-1155.113892	528.9145508	1424.672363	-1080.064941	530.6048584	1422.855103	-1235.560181	317.0930786	1374.944092	-1159.921875	155.0285797	1248.097534	-1168.874634	132.9753876	1217.477661	-1175.112061	97.91439056	1163.393311	-1127.789673	109.8837509	1160.046265	-1176.171387	95.41825104	1102.62085	-1175.018188	60.95700455	1068.810547	-1172.912476	47.48758698	1009.440552	-1121.318359	43.87381744	1009.012024	-1171.306152	40.69258881	935.9108276	-1198.274902	48.85665131	945.1860962	-1148.730347	13.6464653	889.9098511	-1159.140137	168.0187378	725.4388428	-1420.65625	126.1763687	657.3600464	-1415.445679	172.7467957	665.0548706	-1433.450439	146.9099274	327.8576355	-1521.086548	114.9623184	255.8624115	-1527.510132	161.5294342	269.8847961	-1538.373535	116.0042877	35.87007523	-1509.877686	323.2563171	48.40895081	-1548.648682	266.2507935	26.36894417	-1647.371582	124.6177521	697.5341797	-920.3929443	162.1051483	636.1110229	-885.7997437	117.7752609	636.5233154	-909.6760864	88.27713776	317.6582947	-830.9863281	132.394577	262.0588379	-795.5928955	90.27857971	256.7811279	-822.3345337	91.49780273	36.26470566	-848.3988037	284.1182251	45.01530075	-771.4581909	218.7510529	36.50074387	-686.1554565	395.2050781	1222.012573	-1166.999634	361.1357422	1074.013306	-1160.411011	278.4040222	1318.055298	-1352.798706	143.9551392	1237.382202	-1378.03479	105.1812668	1199.628296	-1340.110352	107.6385574	1195.002563	-1390.344849	89.61081696	1161.234375	-1466.693115	133.8883514	1170.830566	-1513.35083	134.0621033	1206.025146	-1477.344971	184.6958313	1243.154297	-1532.670044	285.5368958	1319.142456	-981.1002808	153.0087128	1228.750977	-945.0005493	95.33450317	1208.025024	-948.2645874	101.5441208	1198.807373	-868.0131836	153.7987823	1236.806396	-873.0583496	142.6986237	1222.120605	-825.3113403	180.1067505	1256.874756	-803.6051025	0	0.00426643	-0.057393301	0.00612136	0.00837136	5.13E-19	0.00643259	0.0070398	-0.00162996	0.0121119	1.49E-17	-0.244083002	0.048030101	1.540670037	-0.200345993	1.545099974	0	0
2	0.005	197.78862	1251.0271	-2286.947754	226.7805634	1302.318604	-65.36752319	582.673645	1390.963257	-1155.157471	528.6903076	1425.087646	-1080.08252	530.3178101	1423.276978	-1235.578979	317.0016785	1374.940796	-1159.864868	155.0107117	1248.087036	-1168.857788	132.9584045	1217.468506	-1175.102295	97.89438629	1163.385254	-1127.781372	109.8732071	1160.033569	-1176.159058	95.39239502	1102.612061	-1174.994019	60.9236412	1068.794434	-1172.889893	47.44998932	1009.431824	-1121.28479	43.84555435	1008.995605	-1171.273804	40.66442108	935.8864746	-1198.252441	48.83089828	945.175293	-1148.69165	13.62569904	889.8964233	-1159.095459	168.0518341	725.4197388	-1420.588257	126.2150269	657.3424072	-1415.392456	172.830719	664.996582	-1433.310913	146.9338531	327.8580322	-1521.045532	114.9833679	255.8668671	-1527.48938	161.5522614	269.8872986	-1538.339355	116.0143356	35.875103	-1509.867065	323.2575073	48.40566254	-1548.648071	266.2458801	26.36847305	-1647.374634	124.6197739	697.5546875	-920.281311	162.1059418	636.1338501	-885.6762695	117.7795334	636.5465088	-909.5628052	88.26239777	317.6700134	-830.8696899	132.394577	262.0564575	-795.5154419	90.26433563	256.7960205	-822.2318726	91.48267365	36.25989151	-848.375	284.1109924	45.02585602	-771.4389038	218.7420807	36.49391556	-686.1287842	395.1723328	1222.020508	-1166.954712	361.1001282	1074.008179	-1160.362061	278.3467712	1318.052979	-1352.749756	143.9309845	1237.339966	-1377.991577	105.171669	1199.560547	-1340.078735	107.6306763	1194.952637	-1390.317505	89.62153625	1161.179321	-1466.688965	133.8833923	1170.771851	-1513.364258	134.065506	1205.971558	-1477.364136	184.6670074	1243.100586	-1532.693726	285.4672546	1319.111084	-981.0750122	152.9632111	1228.690063	-944.9840088	95.27523041	1207.964111	-948.2296143	101.4952545	1198.734253	-867.9978638	153.7444611	1236.741455	-873.036499	142.6399994	1222.050659	-825.2877197	180.0547028	1256.81311	-803.5899658	0	0.005061	-0.060040601	0.00655731	0.017273201	1.06E-18	0.00852657	0.0150975	-0.00419271	0.032400701	0.0221218	-0.312817991	0.094028197	1.715270042	-0.210580006	1.703349948	0	0
3	0.01	197.7015991	1250.971191	-2286.935303	226.6478882	1302.2146	-65.35307312	582.5216064	1391.662842	-1155.196533	528.4262695	1425.55957	-1080.09436	529.9890747	1423.760498	-1235.592041	316.8945007	1374.937134	-1159.799805	154.98703	1248.075439	-1168.838379	132.9356842	1217.458374	-1175.091309	97.86811066	1163.376099	-1127.772095	109.8578415	1160.019287	-1176.145508	95.36045074	1102.601807	-1174.967041	60.88324738	1068.775879	-1172.865112	47.40398407	1009.422546	-1121.246826	43.81128311	1008.976685	-1171.237427	40.63304138	935.8562012	-1198.225708	48.79883957	945.1619263	-1148.649048	13.60095406	889.8790283	-1159.046997	168.1000671	725.3978882	-1420.506836	126.2668076	657.3234253	-1415.331787	172.9319611	664.9331665	-1433.154419	146.9668427	327.8587952	-1520.998291	115.0121384	255.8727112	-1527.466553	161.5834961	269.8899841	-1538.299194	116.0260086	35.88113403	-1509.854492	323.2589722	48.40158844	-1548.646973	266.2398987	26.36829376	-1647.378296	124.6143951	697.5770264	-920.152832	162.0990906	636.1578979	-885.5366821	117.7760925	636.5713501	-909.4329834	88.24208069	317.6823425	-830.7373047	132.3912354	262.0531006	-795.4272461	90.24572754	256.8104248	-822.1173096	91.46515656	36.25386429	-848.3478394	284.1027222	45.0381546	-771.4168091	218.7321472	36.48664093	-686.0979004	395.131897	1222.029541	-1166.902588	361.058136	1074.002319	-1160.304443	278.2798157	1318.049805	-1352.694214	143.9003906	1237.292603	-1377.94043	105.1572952	1199.484985	-1340.041138	107.6177673	1194.897461	-1390.284424	89.62874603	1161.118896	-1466.682251	133.8723755	1170.706665	-1513.377563	134.0649414	1205.912354	-1477.384521	184.6312408	1243.040161	-1532.720093	285.3848877	1319.075073	-981.0452271	152.9070282	1228.623047	-944.9665527	95.19438934	1207.895752	-948.1948242	101.4353256	1198.654175	-867.9795532	153.679184	1236.669312	-873.0110474	142.5699005	1221.973145	-825.2607422	179.9926605	1256.744141	-803.572937	0	0.00580535	-0.062236	0.00699008	0.026128599	1.60E-18	0.0105971	0.022881901	-0.00668281	0.051717799	0.047217801	-0.379873008	0.138081998	1.886160016	-0.221074998	1.858510017	0	0
4	0.015	197.6057129	1250.90918	-2286.921631	226.5021057	1302.099243	-65.33753967	582.3457642	1392.442871	-1155.227417	528.1224365	1426.082642	-1080.0979	529.6216431	1424.301392	-1235.596802	316.7716675	1374.933228	-1159.727417	154.9567413	1248.062866	-1168.81665	132.9064331	1217.44751	-1175.079346	97.83474731	1163.365967	-1127.762451	109.8367691	1160.003906	-1176.130859	95.32196808	1102.589844	-1174.937622	60.83550262	1068.755127	-1172.838745	47.34912491	1009.413025	-1121.204956	43.77072144	1008.955444	-1171.197266	40.59886551	935.819458	-1198.194946	48.76002121	945.145752	-1148.603027	13.57212448	889.8572998	-1158.99585	168.1657104	725.3734741	-1420.411621	126.3330612	657.3034668	-1415.26416	173.050415	664.8665161	-1432.983765	147.0100555	327.8598633	-1520.94519	115.049614	255.8800507	-1527.441895	161.6241608	269.8926697	-1538.252686	116.0392151	35.88816833	-1509.840332	323.2607422	48.39669418	-1548.644897	266.2328796	26.36851311	-1647.382568	124.599472	697.6005859	-920.008606	162.0823822	636.1824951	-885.3823242	117.7626572	636.597229	-909.2880249	88.21520233	317.6947327	-830.5906982	132.3834534	262.0485535	-795.3291626	90.22213745	256.8233948	-821.9927368	91.44534302	36.24649048	-848.3175049	284.0935059	45.05219269	-771.3920898	218.7213898	36.47912979	-686.0630493	395.0831604	1222.039917	-1166.843384	361.0097656	1073.995728	-1160.238281	278.2033081	1318.045776	-1352.63269	143.8626556	1237.240967	-1377.881714	105.1372375	1199.40271	-1339.997314	107.598793	1194.838379	-1390.245361	89.63088226	1161.054199	-1466.672241	133.8538971	1170.636353	-1513.390137	134.0590668	1205.848633	-1477.405396	184.5880432	1242.974121	-1532.748657	285.2897339	1319.035034	-981.0109253	152.8392334	1228.551392	-944.9484253	95.09229279	1207.821533	-948.1611328	101.3635635	1198.568848	-867.958313	153.6025696	1236.591309	-872.9823608	142.4880676	1221.889526	-825.2307129	179.9203644	1256.669189	-803.5544434	0	0.0064841	-0.063845001	0.00740437	0.034767099	-0.00650198	0.0125955	0.030203501	-0.00904639	0.069665402	0.070751503	-0.443643004	0.178992003	2.048559904	-0.231444001	2.006059885	0	0
5	0.02	197.5023956	1250.841919	-2286.906982	226.345459	1301.974121	-65.32123566	582.1463013	1393.294189	-1155.246582	527.7796631	1426.650269	-1080.090454	529.2195435	1424.893555	-1235.590942	316.6335449	1374.929321	-1159.64917	154.9190674	1248.049561	-1168.793091	132.8698883	1217.435913	-1175.06665	97.79355621	1163.35498	-1127.752319	109.8091583	1159.987305	-1176.115479	95.27661133	1102.576294	-1174.906494	60.78019333	1068.732178	-1172.811523	47.28513718	1009.403564	-1121.160034	43.72366333	1008.931885	-1171.153931	40.56230164	935.7756348	-1198.160278	48.71417618	945.1266479	-1148.554443	13.53914165	889.8309326	-1158.943115	168.250412	725.3466797	-1420.30249	126.4143829	657.2828979	-1415.190186	173.184906	664.7987671	-1432.802856	147.0642395	327.8612366	-1520.886353	115.0964127	255.8888245	-1527.415527	161.674942	269.8952332	-1538.200073	116.0538254	35.8961792	-1509.824463	323.2627869	48.39095688	-1548.641968	266.2247925	26.3692379	-1647.387451	124.5730591	697.624939	-919.8505249	162.0536499	636.2070923	-885.2150269	117.7373657	636.6234741	-909.1299438	88.18065643	317.7065735	-830.432251	132.3698578	262.0426025	-795.2224731	90.19278717	256.8340759	-821.8604126	91.42331696	36.23764801	-848.2843018	284.0834045	45.06794739	-771.3649292	218.7099762	36.47156906	-686.0244141	395.0255432	1222.051514	-1166.777832	360.9549255	1073.988403	-1160.16394	278.1175537	1318.040649	-1352.566162	143.8171539	1237.186157	-1377.815918	105.1106339	1199.315308	-1339.947388	107.5727844	1194.776367	-1390.200439	89.62641144	1160.986694	-1466.658691	133.8266296	1170.562256	-1513.401245	134.0466461	1205.78186	-1477.426147	184.5370178	1242.90332	-1532.778931	285.1818848	1318.991333	-980.972229	152.7589722	1228.477051	-944.9298706	94.97189331	1207.743774	-948.1290894	101.2793732	1198.480469	-867.9345093	153.5143738	1236.509155	-872.9507446	142.3943481	1221.80188	-825.1980591	179.8376923	1256.589722	-803.534729	0.00577887	0.00708937	-0.064828299	0.00779363	0.0430509	-0.0145977	0.014487	0.036927201	-0.0112506	0.085958198	0.092322603	-0.502822995	0.215990007	2.198950052	-0.241490006	2.142990112	0	0
